<svg width="25" height="24" viewBox="0 0 25 24" fill="none" xmlns="http://www.w3.org/2000/svg">
<path d="M9.33325 22H15.3333C20.3333 22 22.3333 20 22.3333 15V9C22.3333 4 20.3333 2 15.3333 2H9.33325C4.33325 2 2.33325 4 2.33325 9V15C2.33325 20 4.33325 22 9.33325 22Z" stroke="#C4C4C4" stroke-width="1.5" stroke-linecap="round" stroke-linejoin="round"/>
<path d="M17.3333 2.44V12.42C17.3333 14.39 15.9233 15.16 14.1933 14.12L12.8733 13.33C12.5733 13.15 12.0933 13.15 11.7933 13.33L10.4733 14.12C8.74325 15.15 7.33325 14.39 7.33325 12.42V2.44" stroke="#C4C4C4" stroke-width="1.5" stroke-linecap="round" stroke-linejoin="round"/>
<path d="M9.33325 22H15.3333C20.3333 22 22.3333 20 22.3333 15V9C22.3333 4 20.3333 2 15.3333 2H9.33325C4.33325 2 2.33325 4 2.33325 9V15C2.33325 20 4.33325 22 9.33325 22Z" stroke="#C4C4C4" stroke-width="1.5" stroke-linecap="round" stroke-linejoin="round"/>
<path d="M17.3333 2.44V12.42C17.3333 14.39 15.9233 15.16 14.1933 14.12L12.8733 13.33C12.5733 13.15 12.0933 13.15 11.7933 13.33L10.4733 14.12C8.74325 15.15 7.33325 14.39 7.33325 12.42V2.44" stroke="#C4C4C4" stroke-width="1.5" stroke-linecap="round" stroke-linejoin="round"/>
</svg>
