<svg width="30" height="30" viewBox="0 0 30 30" fill="none" xmlns="http://www.w3.org/2000/svg">
<circle opacity="0.73191" cx="15" cy="15" r="15" fill="#3572F3" fill-opacity="0.3"/>
<path d="M14 12C14 11.4477 14.4477 11 15 11C15.5523 11 16 11.4477 16 12V18H14V12Z" fill="url(#paint0_linear_51_269)"/>
<path d="M18.8673 16.1909C19.4007 16.3338 19.7173 16.8822 19.5744 17.4156C19.4314 17.9491 18.8831 18.2657 18.3496 18.1227L12.5541 16.5698L13.0717 14.638L18.8673 16.1909Z" fill="url(#paint1_linear_51_269)"/>
<path d="M22.5093 14.7524C22.5093 10.6103 19.1514 7.99902 15.0093 7.99902C10.8671 7.99902 7.50928 11.3569 7.50928 15.499C7.50928 19.6412 10.8671 22.999 15.0093 22.999C17.7266 22.999 19.7947 22.0625 21.1104 19.8989" stroke="url(#paint2_linear_51_269)" stroke-width="2.5" stroke-linecap="round"/>
<defs>
<linearGradient id="paint0_linear_51_269" x1="16" y1="18" x2="16" y2="11" gradientUnits="userSpaceOnUse">
<stop stop-color="#093CED"/>
<stop offset="1" stop-color="#2F94FE"/>
</linearGradient>
<linearGradient id="paint1_linear_51_269" x1="12.5541" y1="16.5698" x2="19.3156" y2="18.3816" gradientUnits="userSpaceOnUse">
<stop stop-color="#093CED"/>
<stop offset="1" stop-color="#2F94FE"/>
</linearGradient>
<linearGradient id="paint2_linear_51_269" x1="0.00927737" y1="14.2285" x2="12.4683" y2="29.2285" gradientUnits="userSpaceOnUse">
<stop stop-color="#71B3FB"/>
<stop offset="1" stop-color="#3666EE"/>
</linearGradient>
</defs>
</svg>
