<svg width="30" height="30" viewBox="0 0 30 30" fill="none" xmlns="http://www.w3.org/2000/svg">
<circle opacity="0.73191" cx="15" cy="15" r="15" fill="#FE9D45" fill-opacity="0.3"/>
<path d="M12.9033 20.8562H8.4303C8.15416 20.8562 7.9303 20.6323 7.9303 20.3562V17.6075C7.9303 17.4616 7.99357 17.3236 8.09864 17.2224C8.48615 16.8492 9.40822 15.8644 9.40822 14.9429C9.40822 14.0507 8.54406 13.2416 8.13732 12.9102C8.01023 12.8067 7.9303 12.6537 7.9303 12.4897V9.52954C7.9303 9.2534 8.15416 9.02954 8.4303 9.02954H21.6262C21.9024 9.02954 22.1262 9.2534 22.1262 9.52954V12.5598C22.1262 12.6832 22.0809 12.8017 22.004 12.8982C21.7225 13.2513 21.0528 14.1866 21.0528 15.0906C21.0528 15.9869 21.7112 16.8821 21.9967 17.2282C22.0777 17.3263 22.1262 17.4485 22.1262 17.5757V20.3562C22.1262 20.6323 21.9024 20.8562 21.6262 20.8562H17.4082" stroke="url(#paint0_linear_51_267)" stroke-width="2.5" stroke-linecap="round"/>
<path d="M11.4082 19.6042H13.1582C13.8486 19.6042 14.4082 20.1639 14.4082 20.8542C14.4082 21.5446 13.8486 22.1042 13.1582 22.1042H11.4082V19.6042Z" fill="#FD5D13"/>
<path d="M11.3993 7.74927H13.1493C13.8396 7.74927 14.3993 8.30891 14.3993 8.99927C14.3993 9.68962 13.8396 10.2493 13.1493 10.2493H11.3993V7.74927Z" fill="#FD5D13"/>
<rect x="12.0146" y="11.4602" width="3" height="3" rx="1" fill="#FE964B"/>
<rect x="12" y="16" width="3" height="3" rx="1" fill="#FE964B"/>
<defs>
<linearGradient id="paint0_linear_51_267" x1="4.21749" y1="17.6658" x2="15.1364" y2="28.1416" gradientUnits="userSpaceOnUse">
<stop stop-color="#FF983A"/>
<stop offset="1" stop-color="#FA6308"/>
</linearGradient>
</defs>
</svg>
